<?xml version="1.0" encoding="UTF-8" standalone="no"?>
<!-- Created with Inkscape (http://www.inkscape.org/) -->

<svg
   width="512"
   height="512"
   viewBox="0 0 512 512"
   version="1.1"
   id="svg1"
   xmlns="http://www.w3.org/2000/svg"
   xmlns:svg="http://www.w3.org/2000/svg">
  <defs
     id="defs1" />
  <g
     id="layer1">
    <path
       id="text1"
       style="font-weight:500;font-size:412.849px;font-family:'Noto Serif';-inkscape-font-specification:'Noto Serif Medium';fill:#0e1114;stroke-width:28.5658;stroke-linecap:round;stroke-linejoin:round"
       d="m 102.8522,103.0306 -2.14265,78.41249 h 23.99485 l 2.57036,-20.56701 c 0.85697,-9.14105 3.85648,-16.8529 8.99832,-23.13738 4.85619,-6.57014 13.71264,-9.85579 26.56725,-9.85579 h 55.93594 c 4.05459,2.53868 6.68946,7.07468 7.90774,13.60999 v 88.79735 H 190.263 c -37.70684,0 -65.27265,7.85594 -82.69778,23.56713 -17.710794,15.71118 -26.565219,37.27798 -26.565219,64.70114 0,26.85184 8.854425,48.70479 26.565219,65.55862 16.88143,16.0512 43.28176,24.32715 79.199,24.82799 v 0.0243 h 3.49878 126.83193 0.35677 c 75.69934,0 113.5483,-27.70788 113.5483,-83.12552 0,-21.99565 -6.14106,-39.42036 -18.42436,-52.27499 -12.28328,-12.8546 -28.27929,-21.13875 -47.98969,-24.8523 v -2.14266 c 15.42553,-4.85618 28.13588,-12.42598 38.13391,-22.70965 10.28368,-10.28368 15.42627,-24.85299 15.42627,-43.70642 0,-26.56617 -9.42672,-45.9899 -28.28015,-58.27319 -16.72557,-11.15038 -40.98281,-17.35644 -72.77105,-18.61491 v -0.2392 h -12.49711 -117.8336 z m 186.82411,22.70966 h 12.77887 c 22.85263,0 38.99272,4.00002 48.41943,11.99844 9.42671,7.71276 14.13906,21.85184 14.13906,42.4192 0,20.28172 -4.42823,34.99309 -13.28362,44.13414 -8.56974,8.8554 -24.7078,13.28363 -48.41741,13.28363 h -26.13953 v -92.66102 c 0.9844,-8.87845 4.00885,-14.70015 9.07131,-17.46148 1.1008,-0.62903 2.2445,-1.1993 3.43189,-1.71291 z m -89.98727,128.97458 h 26.99497 v 115.14161 c -1.21861,6.94672 -3.85539,11.69967 -7.9118,14.26069 h -19.08317 c -23.13828,0 -39.84865,-5.28465 -50.13234,-15.85399 -10.28367,-10.855 -15.42627,-27.42331 -15.42627,-49.70463 0,-23.13829 5.1426,-39.5625 15.42627,-49.27487 10.28369,-9.71237 26.99406,-14.56881 50.13234,-14.56881 z m 77.48407,5.57049 h 38.99341 c 23.42395,0 39.56404,5.28463 48.41943,15.85399 8.8554,10.28368 13.28159,26.42378 13.2816,48.41943 0,22.56699 -4.71235,38.56299 -14.13906,47.98969 -9.42671,9.14106 -25.5668,13.71135 -48.41944,13.71135 h -26.22466 c -0.96839,-0.39445 -1.91491,-0.82266 -2.83997,-1.28519 -5.06246,-2.76133 -8.08691,-8.39632 -9.07131,-16.90403 z" />
  </g>
</svg>
